<svg width="24" height="24" viewBox="0 0 24 24" fill="none" xmlns="http://www.w3.org/2000/svg">
<path d="M2.96932 5.77055C4.51104 5.77055 5.76085 4.52074 5.76085 2.97903C5.76085 1.43731 4.51104 0.1875 2.96932 0.1875C1.4276 0.1875 0.177795 1.43731 0.177795 2.97903C0.177795 4.52074 1.4276 5.77055 2.96932 5.77055Z" fill="#101820"/>
<path d="M8.39672 7.88592V23.3733H13.2053V15.7144C13.2053 13.6935 13.5855 11.7364 16.0913 11.7364C18.5626 11.7364 18.5932 14.0469 18.5932 15.842V23.3746H23.4044V14.8813C23.4044 10.7093 22.5062 7.50317 17.6299 7.50317C15.2888 7.50317 13.7195 8.78794 13.0778 10.0038H13.0127V7.88592H8.39672ZM0.560547 7.88592H5.37682V23.3733H0.560547V7.88592Z" fill="#101820"/>
</svg>
