<svg width="139" height="52" viewBox="0 0 139 52" fill="none" xmlns="http://www.w3.org/2000/svg">
<path d="M22.1177 13.0588H24.8824V15.8235H27.6471V7.52942H24.8824V10.2941H22.1177V7.52942H19.353V15.8235H22.1177V13.0588Z" fill="#FFCB16"/>
<path d="M44.2292 40.9406C44.1115 38.7585 42.2992 37.0196 40.0882 37.0196H38.7059V2H8.29412V37.0196H6.91176C4.70083 37.0196 2.88847 38.7585 2.77079 40.9406C1.1585 41.5095 0 43.0484 0 44.8529V49H47V44.8529C47 43.0484 45.8415 41.5095 44.2292 40.9406ZM11.0588 4.76471H35.9412V32.4118H30.4118C30.4118 28.6006 27.3111 25.5 23.5 25.5C19.6889 25.5 16.5882 28.6006 16.5882 32.4118H11.0588V4.76471ZM19.3529 32.4118C19.3529 30.1251 21.2133 28.2647 23.5 28.2647C25.7867 28.2647 27.6471 30.1251 27.6471 32.4118H19.3529ZM22.1176 35.1765V46.2353H19.3529V35.1765H22.1176ZM24.8824 35.1765H27.6471V46.2353H24.8824V35.1765ZM2.76471 46.2353V44.8529C2.76471 44.0907 3.38483 43.4706 4.14706 43.4706H5.52941V41.1667C5.52941 40.4044 6.14954 39.7843 6.91176 39.7843H8.29412V46.2353H2.76471ZM11.0588 35.1765H16.5882V46.2353H11.0588V35.1765ZM30.4118 46.2353V35.1765H35.9412V46.2353H30.4118ZM44.2353 46.2353H38.7059V39.7843H40.0882C40.8505 39.7843 41.4706 40.4044 41.4706 41.1667V43.4706H42.8529C43.6152 43.4706 44.2353 44.0907 44.2353 44.8529V46.2353Z" fill="black"/>
<path d="M13.8235 7.52942H16.5882V10.2941H13.8235V7.52942Z" fill="black"/>
<path d="M30.4117 7.52942H33.1764V10.2941H30.4117V7.52942Z" fill="black"/>
<path d="M13.8235 13.0588H16.5882V15.8235H13.8235V13.0588Z" fill="black"/>
<path d="M30.4117 13.0588H33.1764V15.8235H30.4117V13.0588Z" fill="black"/>
<path d="M13.8235 18.5882H16.5882V21.3529H13.8235V18.5882Z" fill="black"/>
<path d="M19.353 18.5882H22.1177V21.3529H19.353V18.5882Z" fill="black"/>
<path d="M24.8823 18.5882H27.647V21.3529H24.8823V18.5882Z" fill="black"/>
<path d="M30.4117 18.5882H33.1764V21.3529H30.4117V18.5882Z" fill="black"/>
<path d="M13.8235 24.1176H16.5882V26.8824H13.8235V24.1176Z" fill="black"/>
<path d="M30.4117 24.1176H33.1764V26.8824H30.4117V24.1176Z" fill="black"/>
<path d="M63.0766 34C62.8366 34 62.6326 33.916 62.4646 33.748C62.2966 33.58 62.2126 33.376 62.2126 33.136V9.7C62.2126 9.436 62.2846 9.22 62.4286 9.052C62.5966 8.884 62.8126 8.8 63.0766 8.8H66.3526C66.6166 8.8 66.8206 8.884 66.9646 9.052C67.1326 9.22 67.2166 9.436 67.2166 9.7V18.988H77.8366V9.7C77.8366 9.436 77.9086 9.22 78.0526 9.052C78.2206 8.884 78.4366 8.8 78.7006 8.8H81.9406C82.2046 8.8 82.4206 8.884 82.5886 9.052C82.7566 9.22 82.8406 9.436 82.8406 9.7V33.136C82.8406 33.4 82.7566 33.616 82.5886 33.784C82.4206 33.928 82.2046 34 81.9406 34H78.7006C78.4606 34 78.2566 33.916 78.0886 33.748C77.9206 33.58 77.8366 33.376 77.8366 33.136V23.488H67.2166V33.136C67.2166 33.376 67.1326 33.58 66.9646 33.748C66.8206 33.916 66.6166 34 66.3526 34H63.0766ZM90.4552 34C90.2152 34 90.0112 33.916 89.8432 33.748C89.6752 33.58 89.5912 33.376 89.5912 33.136V9.7C89.5912 9.436 89.6632 9.22 89.8072 9.052C89.9752 8.884 90.1912 8.8 90.4552 8.8H93.2272C93.5152 8.8 93.7312 8.86 93.8752 8.98C94.0192 9.076 94.1512 9.208 94.2712 9.376L104.639 25.504V9.7C104.639 9.436 104.711 9.22 104.855 9.052C105.023 8.884 105.239 8.8 105.503 8.8H108.527C108.791 8.8 109.007 8.884 109.175 9.052C109.343 9.22 109.427 9.436 109.427 9.7V33.1C109.427 33.364 109.343 33.58 109.175 33.748C109.007 33.916 108.803 34 108.563 34H105.755C105.347 34 104.999 33.808 104.711 33.424L94.3792 17.656V33.136C94.3792 33.4 94.2952 33.616 94.1272 33.784C93.9592 33.928 93.7432 34 93.4792 34H90.4552ZM125.988 34.36C122.7 34.36 120.132 33.508 118.284 31.804C116.46 30.1 115.488 27.724 115.368 24.676C115.344 23.98 115.332 22.864 115.332 21.328C115.332 19.792 115.344 18.676 115.368 17.98C115.488 15.004 116.472 12.676 118.32 10.996C120.192 9.292 122.748 8.44 125.988 8.44C128.196 8.44 130.092 8.812 131.676 9.556C133.26 10.3 134.46 11.236 135.276 12.364C136.092 13.468 136.524 14.56 136.572 15.64V15.712C136.572 15.904 136.5 16.072 136.356 16.216C136.212 16.336 136.032 16.396 135.816 16.396H132.108C131.868 16.396 131.688 16.36 131.568 16.288C131.448 16.192 131.34 16.036 131.244 15.82C130.908 14.932 130.32 14.176 129.48 13.552C128.64 12.904 127.476 12.58 125.988 12.58C124.308 12.58 122.988 13.036 122.028 13.948C121.092 14.86 120.588 16.264 120.516 18.16C120.492 18.856 120.48 19.912 120.48 21.328C120.48 22.72 120.492 23.776 120.516 24.496C120.66 28.312 122.508 30.22 126.06 30.22C127.764 30.22 129.132 29.764 130.164 28.852C131.196 27.916 131.712 26.536 131.712 24.712V23.596H127.32C127.056 23.596 126.84 23.512 126.672 23.344C126.528 23.176 126.456 22.96 126.456 22.696V20.788C126.456 20.524 126.528 20.308 126.672 20.14C126.84 19.972 127.056 19.888 127.32 19.888H135.924C136.188 19.888 136.392 19.972 136.536 20.14C136.704 20.308 136.788 20.524 136.788 20.788V24.568C136.788 26.56 136.344 28.3 135.456 29.788C134.592 31.252 133.344 32.38 131.712 33.172C130.08 33.964 128.172 34.36 125.988 34.36ZM62.4345 49C62.3478 49 62.2785 48.974 62.2265 48.922C62.1745 48.87 62.1485 48.8007 62.1485 48.714V40.199C62.1485 40.1123 62.1745 40.043 62.2265 39.991C62.2785 39.9303 62.3478 39.9 62.4345 39.9H62.6685C62.7638 39.9 62.8375 39.926 62.8895 39.978C62.9415 40.03 62.9675 40.1037 62.9675 40.199V43.995H67.9855V40.199C67.9855 40.1123 68.0115 40.043 68.0635 39.991C68.1155 39.9303 68.1848 39.9 68.2715 39.9H68.5055C68.6008 39.9 68.6745 39.926 68.7265 39.978C68.7785 40.03 68.8045 40.1037 68.8045 40.199V48.714C68.8045 48.8007 68.7742 48.87 68.7135 48.922C68.6615 48.974 68.5922 49 68.5055 49H68.2715C68.1848 49 68.1155 48.974 68.0635 48.922C68.0115 48.87 67.9855 48.8007 67.9855 48.714V44.775H62.9675V48.714C62.9675 48.8007 62.9372 48.87 62.8765 48.922C62.8245 48.974 62.7552 49 62.6685 49H62.4345ZM80.078 49.13C77.8507 49.13 76.7067 47.934 76.646 45.542C76.6374 45.282 76.633 44.918 76.633 44.45C76.633 43.982 76.6374 43.618 76.646 43.358C76.6807 42.1793 77.0014 41.2867 77.608 40.68C78.2147 40.0733 79.038 39.77 80.078 39.77C81.118 39.77 81.9414 40.0733 82.548 40.68C83.1547 41.2867 83.4754 42.1793 83.51 43.358C83.5274 43.878 83.536 44.242 83.536 44.45C83.536 44.658 83.5274 45.022 83.51 45.542C83.4494 47.934 82.3054 49.13 80.078 49.13ZM80.078 48.35C80.858 48.35 81.4777 48.116 81.937 47.648C82.405 47.1713 82.6564 46.4477 82.691 45.477C82.7084 44.957 82.717 44.6147 82.717 44.45C82.717 44.2853 82.7084 43.943 82.691 43.423C82.6564 42.4523 82.405 41.733 81.937 41.265C81.469 40.7883 80.8494 40.55 80.078 40.55C79.3067 40.55 78.687 40.7883 78.219 41.265C77.751 41.733 77.4997 42.4523 77.465 43.423C77.4564 43.683 77.452 44.0253 77.452 44.45C77.452 44.8747 77.4564 45.217 77.465 45.477C77.4997 46.4477 77.7467 47.1713 78.206 47.648C78.674 48.116 79.298 48.35 80.078 48.35ZM93.4096 49C93.323 49 93.2536 48.974 93.2016 48.922C93.1496 48.87 93.1236 48.8007 93.1236 48.714V40.68H90.5496C90.463 40.68 90.3936 40.654 90.3416 40.602C90.2896 40.55 90.2636 40.4807 90.2636 40.394V40.199C90.2636 40.1123 90.2896 40.043 90.3416 39.991C90.3936 39.9303 90.463 39.9 90.5496 39.9H96.5036C96.599 39.9 96.6726 39.926 96.7246 39.978C96.7766 40.03 96.8026 40.1037 96.8026 40.199V40.394C96.8026 40.4807 96.7723 40.55 96.7116 40.602C96.6596 40.654 96.5903 40.68 96.5036 40.68H93.9426V48.714C93.9426 48.8007 93.9123 48.87 93.8516 48.922C93.7996 48.974 93.7303 49 93.6436 49H93.4096ZM104.403 49C104.316 49 104.247 48.974 104.195 48.922C104.143 48.87 104.117 48.8007 104.117 48.714V40.199C104.117 40.1123 104.143 40.043 104.195 39.991C104.247 39.9303 104.316 39.9 104.403 39.9H109.473C109.568 39.9 109.642 39.926 109.694 39.978C109.746 40.03 109.772 40.1037 109.772 40.199V40.394C109.772 40.4807 109.742 40.55 109.681 40.602C109.629 40.654 109.56 40.68 109.473 40.68H104.936V43.995H109.187C109.282 43.995 109.356 44.021 109.408 44.073C109.46 44.125 109.486 44.1987 109.486 44.294V44.489C109.486 44.5757 109.456 44.645 109.395 44.697C109.343 44.749 109.274 44.775 109.187 44.775H104.936V48.22H109.577C109.672 48.22 109.746 48.246 109.798 48.298C109.85 48.35 109.876 48.4237 109.876 48.519V48.714C109.876 48.8007 109.846 48.87 109.785 48.922C109.733 48.974 109.664 49 109.577 49H104.403ZM117.842 49C117.756 49 117.686 48.974 117.634 48.922C117.582 48.87 117.556 48.8007 117.556 48.714V40.186C117.556 40.0993 117.582 40.03 117.634 39.978C117.686 39.926 117.756 39.9 117.842 39.9H118.089C118.176 39.9 118.245 39.926 118.297 39.978C118.349 40.03 118.375 40.0993 118.375 40.186V48.22H122.86C122.956 48.22 123.029 48.246 123.081 48.298C123.133 48.35 123.159 48.4237 123.159 48.519V48.714C123.159 48.8007 123.129 48.87 123.068 48.922C123.016 48.974 122.947 49 122.86 49H117.842ZM133.154 49.13C132.478 49.13 131.889 49.0217 131.386 48.805C130.892 48.5797 130.511 48.2893 130.242 47.934C129.982 47.5787 129.844 47.1973 129.826 46.79C129.826 46.7207 129.852 46.66 129.904 46.608C129.956 46.556 130.021 46.53 130.099 46.53H130.359C130.515 46.53 130.611 46.6167 130.645 46.79C130.706 47.206 130.944 47.57 131.36 47.882C131.776 48.194 132.374 48.35 133.154 48.35C133.978 48.35 134.589 48.2027 134.987 47.908C135.395 47.6047 135.598 47.1843 135.598 46.647C135.598 46.3177 135.499 46.049 135.299 45.841C135.109 45.6243 134.827 45.438 134.454 45.282C134.082 45.1173 133.518 44.9137 132.764 44.671C132.097 44.4543 131.573 44.242 131.191 44.034C130.819 43.826 130.541 43.5703 130.359 43.267C130.177 42.9637 130.086 42.578 130.086 42.11C130.086 41.668 130.203 41.2693 130.437 40.914C130.68 40.5587 131.027 40.2813 131.477 40.082C131.928 39.874 132.465 39.77 133.089 39.77C133.731 39.77 134.281 39.887 134.74 40.121C135.2 40.3463 135.546 40.6367 135.78 40.992C136.014 41.3387 136.14 41.6897 136.157 42.045C136.157 42.1143 136.131 42.175 136.079 42.227C136.036 42.279 135.971 42.305 135.884 42.305H135.624C135.564 42.305 135.503 42.2877 135.442 42.253C135.382 42.2097 135.347 42.1403 135.338 42.045C135.286 41.6117 135.052 41.2563 134.636 40.979C134.229 40.693 133.713 40.55 133.089 40.55C132.422 40.55 131.889 40.68 131.49 40.94C131.1 41.2 130.905 41.59 130.905 42.11C130.905 42.448 130.992 42.7297 131.165 42.955C131.347 43.1717 131.616 43.3623 131.971 43.527C132.327 43.683 132.851 43.8737 133.544 44.099C134.255 44.3243 134.81 44.541 135.208 44.749C135.607 44.957 135.906 45.2083 136.105 45.503C136.313 45.7977 136.417 46.179 136.417 46.647C136.417 47.427 136.127 48.038 135.546 48.48C134.966 48.9133 134.168 49.13 133.154 49.13Z" fill="black"/>
</svg>
