<svg width="27" height="22" viewBox="0 0 27 22" fill="none" xmlns="http://www.w3.org/2000/svg">
<path d="M23.8747 5.39894C23.8861 5.63121 23.8904 5.86634 23.8904 6.09861C23.8904 13.253 18.4735 21.5 8.56841 21.5C5.52541 21.5 2.6964 20.6039 0.3125 19.0669C1.72255 19.2383 3.15237 19.1287 4.52026 18.7444C5.88814 18.3602 7.16726 17.7087 8.28451 16.8274C7.16092 16.8061 6.07205 16.4324 5.17015 15.7586C4.26824 15.0848 3.59837 14.1447 3.25421 13.0695C4.06177 13.2213 4.8929 13.1895 5.68662 12.9763C4.46772 12.7279 3.37177 12.0637 2.58448 11.0961C1.79719 10.1285 1.36699 8.91705 1.36678 7.66714V7.59975C2.11461 8.01784 2.951 8.25034 3.80632 8.27792C2.66483 7.51313 1.85679 6.33937 1.54713 4.9962C1.23746 3.65304 1.44952 2.24174 2.14001 1.05036C3.49216 2.72278 5.17924 4.09064 7.09167 5.06509C9.0041 6.03955 11.0991 6.5988 13.2406 6.70652C13.148 6.30166 13.1015 5.8875 13.1022 5.47206C13.1022 4.76155 13.2415 4.05799 13.5121 3.40158C13.7827 2.74517 14.1793 2.14876 14.6793 1.64642C15.1793 1.14408 15.7728 0.745645 16.426 0.473874C17.0793 0.202102 17.7794 0.0623189 18.4863 0.0625072C19.2231 0.0612996 19.9523 0.212248 20.6287 0.50599C21.305 0.799731 21.9141 1.23 22.4181 1.77011C23.6238 1.53024 24.7802 1.08614 25.8378 0.45679C25.4355 1.71018 24.5939 2.77405 23.4696 3.45047C24.5371 3.32329 25.5796 3.03622 26.5625 2.59882C25.8404 3.68623 24.9301 4.63463 23.8747 5.39894Z" fill="#101820"/>
</svg>
